<svg id="visual" viewBox="0 0 1920 1080" width="1920" height="1080" xmlns="http://www.w3.org/2000/svg" xmlns:xlink="http://www.w3.org/1999/xlink" version="1.1"><rect x="0" y="0" width="1920" height="1080" fill="#001220"></rect><path d="M0 893L45.7 880.8C91.3 868.7 182.7 844.3 274.2 850C365.7 855.7 457.3 891.3 548.8 906.3C640.3 921.3 731.7 915.7 823 908.8C914.3 902 1005.7 894 1097 897.5C1188.3 901 1279.7 916 1371.2 928.5C1462.7 941 1554.3 951 1645.8 929.8C1737.3 908.7 1828.7 856.3 1874.3 830.2L1920 804L1920 1081L1874.3 1081C1828.7 1081 1737.3 1081 1645.8 1081C1554.3 1081 1462.7 1081 1371.2 1081C1279.7 1081 1188.3 1081 1097 1081C1005.7 1081 914.3 1081 823 1081C731.7 1081 640.3 1081 548.8 1081C457.3 1081 365.7 1081 274.2 1081C182.7 1081 91.3 1081 45.7 1081L0 1081Z" fill="#7b1a3b"></path><path d="M0 916L45.7 923.8C91.3 931.7 182.7 947.3 274.2 957.2C365.7 967 457.3 971 548.8 954C640.3 937 731.7 899 823 900.5C914.3 902 1005.7 943 1097 944.3C1188.3 945.7 1279.7 907.3 1371.2 896.5C1462.7 885.7 1554.3 902.3 1645.8 913.5C1737.3 924.7 1828.7 930.3 1874.3 933.2L1920 936L1920 1081L1874.3 1081C1828.7 1081 1737.3 1081 1645.8 1081C1554.3 1081 1462.7 1081 1371.2 1081C1279.7 1081 1188.3 1081 1097 1081C1005.7 1081 914.3 1081 823 1081C731.7 1081 640.3 1081 548.8 1081C457.3 1081 365.7 1081 274.2 1081C182.7 1081 91.3 1081 45.7 1081L0 1081Z" fill="#8e1939"></path><path d="M0 1048L45.7 1033.2C91.3 1018.3 182.7 988.7 274.2 970.5C365.7 952.3 457.3 945.7 548.8 955.3C640.3 965 731.7 991 823 991.3C914.3 991.7 1005.7 966.3 1097 954.5C1188.3 942.7 1279.7 944.3 1371.2 948.5C1462.7 952.7 1554.3 959.3 1645.8 958C1737.3 956.7 1828.7 947.3 1874.3 942.7L1920 938L1920 1081L1874.3 1081C1828.7 1081 1737.3 1081 1645.8 1081C1554.3 1081 1462.7 1081 1371.2 1081C1279.7 1081 1188.3 1081 1097 1081C1005.7 1081 914.3 1081 823 1081C731.7 1081 640.3 1081 548.8 1081C457.3 1081 365.7 1081 274.2 1081C182.7 1081 91.3 1081 45.7 1081L0 1081Z" fill="#a01a35"></path></svg>